<?xml version="1.0" encoding="iso-8859-1"?>
<!-- Generator: Adobe Illustrator 19.0.0, SVG Export Plug-In . SVG Version: 6.00 Build 0)  -->
<svg xmlns="http://www.w3.org/2000/svg" xmlns:xlink="http://www.w3.org/1999/xlink" version="1.1" id="Capa_1" x="0px" y="0px" viewBox="0 0 512 512" style="enable-background:new 0 0 512 512;" xml:space="preserve" width="512px" height="512px">
<g>
	<g>
		<path d="M409.124,227.485c-4.151,0-7.515,3.365-7.515,7.515v69.33c0,37.435-20.072,71.983-53.695,92.416    c-2.242,1.363-3.611,3.797-3.611,6.422v10.973H226.332v-10.995c0-2.624-1.369-5.058-3.611-6.422    c-16.165-9.826-29.655-23.371-39.011-39.169c-2.114-3.571-6.723-4.751-10.295-2.636c-3.571,2.115-4.751,6.724-2.636,10.295    c9.902,16.72,23.858,31.195,40.525,42.077v14.364v50.327v32.503c0,4.15,3.365,7.515,7.515,7.515h133    c4.151,0,7.515-3.365,7.515-7.515v-32.483c0-0.007,0.001-0.013,0.001-0.019v-50.327c0-0.007-0.001-0.013-0.001-0.019v-14.32    c35.966-23.429,57.306-61.624,57.306-102.986V235C416.639,230.849,413.275,227.485,409.124,227.485z M344.303,496.971h-117.97    v-17.473h117.97V496.971z M344.304,464.468H226.332V429.17h117.971V464.468z" fill="#003eaa"/>
	</g>
</g>
<g>
	<g>
		<path d="M378.836,99.495h-2.03c-8.544,0-16.435,2.805-22.773,7.53V55.942c0-0.298-0.018-0.594-0.053-0.89    c-2.29-19.21-18.6-33.696-37.938-33.696c-9.134,0-17.529,3.22-24.11,8.587C288.141,12.836,272.85,0,254.618,0    c-21.205,0-39.12,17.5-39.12,38.216v0.773c-5.501-4.33-12.175-7.175-19.441-7.878c-10.71-1.041-21.42,2.516-29.39,9.75    c-7.989,7.252-12.57,17.56-12.57,28.278l-0.085,122.732c-1.089-0.78-2.217-1.514-3.385-2.205    c-14.763-8.736-32.161-6.434-44.322,5.861c-12.23,12.364-14.432,30.585-5.482,45.34c0.172,0.285,0.365,0.558,0.573,0.817    l4.348,5.398c16.358,20.307,30.736,43.314,42.734,68.383c1.292,2.697,3.981,4.272,6.784,4.272c1.087,0,2.192-0.237,3.238-0.738    c3.743-1.793,5.325-6.279,3.534-10.023c-12.5-26.115-27.502-50.111-44.587-71.322l-4.015-4.984    c-6.21-10.665-2.001-20.955,3.556-26.573c5.692-5.754,15.506-9.694,25.983-3.496c4.455,2.636,7.97,6.117,10.696,10.592    c0.021,0.034,0.057,0.093,0.089,0.145c0.378,0.628,0.742,1.273,1.09,1.941c0.23,0.443,0.51,0.845,0.814,1.223    c4.728,7.974,16.986,29.376,29.934,57.953c1.258,2.774,3.99,4.415,6.849,4.415c1.037,0,2.091-0.216,3.097-0.671    c3.779-1.713,5.456-6.166,3.743-9.946c-12.992-28.672-25.063-49.906-30.259-58.689l0.097-140.417    c0-6.493,2.785-12.746,7.642-17.156c4.909-4.456,11.243-6.558,17.838-5.92c11.715,1.135,20.891,11.582,20.891,23.781v139.267    c0,4.15,3.365,7.515,7.515,7.515c4.15,0,7.515-3.365,7.515-7.515V69.849V54.146v-15.93c0.004-12.569,11.037-23.186,24.095-23.186    c12.784,0,23.185,10.401,23.185,23.194l0.023,21.357c0.001,0.949-0.021,149.536-0.021,149.536c0,4.15,3.364,7.515,7.515,7.515    s7.515-3.365,7.515-7.515c0,0,0.021-148.57,0.021-149.544c0-12.785,10.401-23.186,23.186-23.186    c11.592,0,21.391,8.584,22.962,20.034v80.295c0,0.472,0.049,0.932,0.132,1.38v71.022c0,4.15,3.364,7.515,7.515,7.515    s7.515-3.365,7.515-7.515v-72.401c0-0.399-0.04-0.788-0.1-1.17c0.626-11.694,10.587-21.02,22.741-21.02h2.03    c12.557,0,22.773,9.954,22.773,22.19v45.14c0,4.15,3.364,7.515,7.515,7.515c4.151,0,7.515-3.365,7.515-7.515v-45.14    C416.639,116.192,399.681,99.495,378.836,99.495z" fill="#003eaa"/>
	</g>
</g>
<g>
	<g>
		<path d="M263.985,445.35c-0.1-0.481-0.241-0.952-0.431-1.403c-0.19-0.461-0.42-0.892-0.691-1.302    c-0.271-0.411-0.591-0.792-0.932-1.142c-0.351-0.341-0.731-0.661-1.152-0.932c-0.4-0.271-0.842-0.501-1.292-0.691    c-0.45-0.19-0.922-0.331-1.402-0.431c-0.973-0.19-1.974-0.19-2.936,0c-0.481,0.1-0.952,0.24-1.413,0.431    c-0.451,0.19-0.882,0.421-1.293,0.691c-0.411,0.271-0.802,0.591-1.142,0.932c-0.351,0.351-0.661,0.731-0.932,1.142    c-0.271,0.411-0.511,0.842-0.691,1.302c-0.19,0.451-0.341,0.922-0.431,1.403c-0.1,0.481-0.15,0.982-0.15,1.473    c0,1.974,0.802,3.908,2.204,5.31c1.393,1.403,3.337,2.204,5.31,2.204c0.491,0,0.982-0.05,1.473-0.15    c0.48-0.1,0.952-0.24,1.402-0.431c0.451-0.19,0.893-0.421,1.292-0.691c0.421-0.271,0.801-0.591,1.152-0.932    c0.341-0.351,0.661-0.731,0.932-1.142c0.271-0.411,0.501-0.842,0.691-1.303c0.19-0.451,0.331-0.922,0.431-1.403    c0.09-0.481,0.14-0.982,0.14-1.463C264.125,446.332,264.075,445.831,263.985,445.35z" fill="#003eaa"/>
	</g>
</g>
<g>
	<g>
		<path d="M292.702,445.35c-0.09-0.481-0.241-0.952-0.431-1.403c-0.18-0.461-0.42-0.892-0.691-1.303    c-0.271-0.411-0.581-0.792-0.932-1.142c-1.744-1.743-4.339-2.545-6.784-2.054c-0.48,0.1-0.952,0.24-1.402,0.431    c-0.451,0.19-0.893,0.421-1.304,0.691s-0.792,0.591-1.142,0.932c-0.341,0.351-0.661,0.731-0.932,1.142    c-0.271,0.411-0.501,0.842-0.691,1.303c-0.18,0.451-0.331,0.922-0.421,1.403c-0.099,0.481-0.149,0.982-0.149,1.473    c0,1.974,0.801,3.908,2.193,5.31c0.351,0.341,0.732,0.661,1.142,0.932c0.411,0.271,0.853,0.501,1.304,0.691    c0.45,0.19,0.931,0.331,1.402,0.431c0.492,0.1,0.983,0.15,1.474,0.15c1.974,0,3.917-0.802,5.31-2.204    c1.402-1.403,2.204-3.337,2.204-5.31C292.852,446.332,292.802,445.831,292.702,445.35z" fill="#003eaa"/>
	</g>
</g>
<g>
	<g>
		<path d="M321.428,445.35c-0.1-0.481-0.241-0.952-0.431-1.403c-0.19-0.461-0.42-0.892-0.691-1.303    c-0.271-0.411-0.581-0.792-0.932-1.142c-0.352-0.341-0.732-0.661-1.143-0.932c-0.41-0.271-0.842-0.501-1.303-0.691    c-0.451-0.19-0.922-0.331-1.402-0.431c-0.973-0.19-1.964-0.19-2.937,0c-0.48,0.1-0.951,0.24-1.402,0.431    c-0.461,0.19-0.893,0.421-1.303,0.691c-0.412,0.271-0.792,0.591-1.143,0.932c-0.341,0.351-0.661,0.731-0.932,1.142    c-0.271,0.411-0.501,0.842-0.691,1.303c-0.19,0.451-0.332,0.922-0.431,1.403s-0.15,0.982-0.15,1.473    c0,0.481,0.05,0.982,0.15,1.463s0.241,0.952,0.431,1.403c0.19,0.461,0.42,0.892,0.691,1.303c0.271,0.411,0.591,0.792,0.932,1.142    c0.352,0.341,0.732,0.661,1.143,0.932c0.41,0.271,0.842,0.501,1.303,0.691c0.451,0.19,0.922,0.331,1.402,0.431    c0.482,0.1,0.983,0.15,1.474,0.15c0.49,0,0.982-0.05,1.463-0.15c0.48-0.1,0.951-0.24,1.402-0.431    c0.461-0.19,0.893-0.421,1.303-0.691c0.412-0.271,0.792-0.591,1.143-0.932c0.351-0.351,0.661-0.731,0.932-1.142    c0.271-0.411,0.501-0.842,0.691-1.303c0.19-0.451,0.332-0.922,0.431-1.403s0.15-0.982,0.15-1.463    C321.578,446.332,321.528,445.831,321.428,445.35z" fill="#003eaa"/>
	</g>
</g>
<g>
</g>
<g>
</g>
<g>
</g>
<g>
</g>
<g>
</g>
<g>
</g>
<g>
</g>
<g>
</g>
<g>
</g>
<g>
</g>
<g>
</g>
<g>
</g>
<g>
</g>
<g>
</g>
<g>
</g>
</svg>
