<?xml version="1.0" encoding="iso-8859-1"?>
<!-- Generator: Adobe Illustrator 19.0.0, SVG Export Plug-In . SVG Version: 6.00 Build 0)  -->
<svg xmlns="http://www.w3.org/2000/svg" xmlns:xlink="http://www.w3.org/1999/xlink" version="1.1" id="Capa_1" x="0px" y="0px" viewBox="0 0 512 512" style="enable-background:new 0 0 512 512;" xml:space="preserve" width="512px" height="512px">
<g>
	<g>
		<path d="M295.92,66.794H30.53C13.695,66.795,0,80.49,0,97.325v317.349c0,16.834,13.695,30.53,30.53,30.53h119.094    c4.157,0,7.527-3.37,7.527-7.527s-3.37-7.527-7.527-7.527H30.53c-8.534,0-15.477-6.943-15.477-15.477V97.325    c0-8.534,6.943-15.477,15.477-15.477h265.39c4.157,0,7.527-3.37,7.527-7.527C303.447,70.164,300.078,66.794,295.92,66.794z" fill="#003eaa"/>
	</g>
</g>
<g>
	<g>
		<path d="M481.469,66.795H349.33c-4.157,0-7.527,3.37-7.527,7.527s3.369,7.527,7.527,7.527h132.14    c8.534,0,15.478,6.943,15.478,15.477v317.349c0,8.534-6.943,15.477-15.478,15.477H204.317c-4.157,0-7.527,3.37-7.527,7.527    c0,4.157,3.37,7.527,7.527,7.527h277.152c16.835,0,30.531-13.695,30.531-30.53V97.325C512,80.49,498.304,66.795,481.469,66.795z" fill="#003eaa"/>
	</g>
</g>
<g>
	<g>
		<path d="M448.586,102.397H63.413c-14.067,0-25.512,11.445-25.512,25.513v256.179c0,14.068,11.445,25.513,25.512,25.513h385.173    c14.067,0,25.512-11.445,25.512-25.513V127.91C474.098,113.842,462.653,102.397,448.586,102.397z M459.045,384.089    c0,5.767-4.691,10.459-10.459,10.459H63.413c-5.767,0-10.459-4.692-10.459-10.459V127.91c0-5.767,4.692-10.459,10.459-10.459    h385.173c5.768-0.001,10.459,4.691,10.459,10.459V384.089z" fill="#003eaa"/>
	</g>
</g>
<g>
	<g>
		<path d="M404.023,255.372h-60.124v-49.483c0-6.917-5.627-12.544-12.544-12.544h-60.123v-49.483    c0-6.917-5.627-12.544-12.544-12.544H107.977c-6.917,0-12.544,5.627-12.544,12.544v100.221    c-0.001,6.916,5.627,12.544,12.544,12.544H168.1v49.482c0,6.917,5.627,12.544,12.544,12.544h60.124v49.483    c0,6.917,5.627,12.544,12.544,12.544h150.711c6.917,0,12.544-5.627,12.544-12.544v-100.22    C416.567,260.999,410.94,255.372,404.023,255.372z M180.644,193.344c-6.917,0-12.544,5.627-12.544,12.544v35.685h-57.614V146.37h0    h145.693v46.974H180.644z M240.768,267.916v35.685h-57.615v-95.203h145.693v46.974h-75.534    C246.395,255.372,240.768,260.999,240.768,267.916z M401.514,365.627H255.821v-95.203h145.693V365.627z" fill="#003eaa"/>
	</g>
</g>
<g>
</g>
<g>
</g>
<g>
</g>
<g>
</g>
<g>
</g>
<g>
</g>
<g>
</g>
<g>
</g>
<g>
</g>
<g>
</g>
<g>
</g>
<g>
</g>
<g>
</g>
<g>
</g>
<g>
</g>
</svg>
